M48
; DRILL file {KiCad 8.0.6} date 2024-11-19T23:03:59+0100
; FORMAT={-:-/ absolute / inch / decimal}
; #@! TF.CreationDate,2024-11-19T23:03:59+01:00
; #@! TF.GenerationSoftware,Kicad,Pcbnew,8.0.6
; #@! TF.FileFunction,Plated,1,2,PTH
FMAT,2
INCH
; #@! TA.AperFunction,Plated,PTH,ViaDrill
T1C0.0079
; #@! TA.AperFunction,Plated,PTH,ViaDrill
T2C0.0118
; #@! TA.AperFunction,Plated,PTH,ComponentDrill
T3C0.0197
; #@! TA.AperFunction,Plated,PTH,ComponentDrill
T4C0.0276
; #@! TA.AperFunction,Plated,PTH,ComponentDrill
T5C0.0315
; #@! TA.AperFunction,Plated,PTH,ComponentDrill
T6C0.0354
; #@! TA.AperFunction,Plated,PTH,ComponentDrill
T7C0.0394
; #@! TA.AperFunction,Plated,PTH,ComponentDrill
T8C0.0591
; #@! TA.AperFunction,Plated,PTH,ComponentDrill
T9C0.0787
; #@! TA.AperFunction,Plated,PTH,ViaDrill
T10C0.1181
%
G90
G05
T1
X5.89Y-3.908
X5.89Y-3.964
X5.89Y-4.016
X5.89Y-4.07
X5.89Y-4.104
X5.898Y-3.83
T2
X3.04Y-1.67
X3.05Y-3.035
X3.055Y-2.945
X3.07Y-2.86
X3.08Y-1.61
X3.09Y-4.37
X3.12Y-1.56
X3.14Y-4.32
X3.15Y-1.68
X3.15Y-2.78
X3.16Y-2.955
X3.16Y-3.035
X3.17Y-1.53
X3.19Y-1.63
X3.19Y-4.4
X3.2Y-4.26
X3.225Y-2.705
X3.225Y-2.885
X3.24Y-1.53
X3.24Y-1.61
X3.25Y-4.34
X3.27Y-4.19
X3.28Y-3.02
X3.29Y-2.82
X3.3Y-2.63
X3.3Y-2.96
X3.3Y-4.3
X3.32Y-1.53
X3.32Y-1.61
X3.32Y-1.73
X3.32Y-4.14
X3.34Y-2.915
X3.36Y-4.24
X3.37Y-4.09
X3.39Y-1.53
X3.39Y-1.61
X3.39Y-1.7
X3.39Y-2.605
X3.39Y-2.71
X3.39Y-2.765
X3.4Y-4.3
X3.4Y-4.39
X3.402Y-3.876
X3.405Y-2.855
X3.408Y-4.652
X3.41Y-4.19
X3.424Y-3.31
X3.46Y-1.53
X3.46Y-1.61
X3.46Y-1.7
X3.46Y-4.07
X3.46Y-4.16
X3.46Y-4.3
X3.46Y-4.39
X3.465Y-2.605
X3.465Y-2.71
X3.465Y-2.765
X3.465Y-2.855
X3.526Y-3.286
X3.526Y-3.318
X3.526Y-3.35
X3.53Y-4.07
X3.53Y-4.16
X3.53Y-4.3
X3.53Y-4.39
X3.54Y-1.53
X3.54Y-1.61
X3.54Y-1.7
X3.55Y-2.605
X3.55Y-2.71
X3.55Y-2.765
X3.55Y-2.855
X3.55Y-4.86
X3.558Y-2.064
X3.558Y-2.096
X3.558Y-2.128
X3.604Y-2.064
X3.604Y-2.096
X3.604Y-2.128
X3.608Y-3.286
X3.608Y-3.318
X3.608Y-3.35
X3.63Y-1.53
X3.63Y-1.61
X3.63Y-1.7
X3.63Y-4.07
X3.63Y-4.16
X3.63Y-4.3
X3.63Y-4.39
X3.65Y-2.605
X3.65Y-2.71
X3.65Y-2.765
X3.65Y-2.855
X3.7Y-1.53
X3.7Y-1.61
X3.7Y-1.7
X3.71Y-4.07
X3.71Y-4.16
X3.71Y-4.3
X3.71Y-4.39
X3.712Y-4.71
X3.716Y-3.012
X3.716Y-3.05
X3.72Y-1.95
X3.72Y-2.01
X3.72Y-2.37
X3.72Y-2.53
X3.72Y-2.605
X3.72Y-2.71
X3.72Y-2.765
X3.72Y-2.855
X3.748Y-3.876
X3.75Y-3.432
X3.77Y-1.53
X3.77Y-1.61
X3.77Y-1.7
X3.79Y-2.37
X3.79Y-2.53
X3.79Y-2.605
X3.79Y-2.71
X3.79Y-2.765
X3.79Y-2.855
X3.794Y-3.012
X3.796Y-3.05
X3.8Y-4.07
X3.8Y-4.16
X3.8Y-4.3
X3.8Y-4.39
X3.816Y-4.632
X3.856Y-3.488
X3.856Y-3.518
X3.856Y-3.546
X3.86Y-1.53
X3.86Y-1.61
X3.86Y-1.7
X3.87Y-2.605
X3.87Y-2.71
X3.87Y-2.765
X3.87Y-2.855
X3.884Y-2.184
X3.884Y-2.214
X3.884Y-2.242
X3.886Y-3.488
X3.886Y-3.518
X3.886Y-3.546
X3.9Y-4.972
X3.912Y-2.184
X3.912Y-2.214
X3.912Y-2.242
X3.916Y-3.488
X3.916Y-3.518
X3.916Y-3.546
X3.938Y-2.184
X3.938Y-2.214
X3.938Y-2.242
X3.94Y-1.53
X3.94Y-1.61
X3.94Y-1.7
X3.946Y-3.488
X3.946Y-3.518
X3.946Y-3.546
X3.966Y-2.184
X3.966Y-2.214
X3.966Y-2.242
X3.97Y-2.605
X3.97Y-2.71
X3.97Y-2.765
X3.97Y-2.855
X3.97Y-4.766
X4.01Y-1.53
X4.01Y-1.61
X4.01Y-1.7
X4.02Y-2.37
X4.02Y-2.53
X4.02Y-2.605
X4.02Y-2.71
X4.02Y-2.765
X4.02Y-2.855
X4.02Y-4.07
X4.02Y-4.16
X4.02Y-4.3
X4.02Y-4.39
X4.026Y-3.038
X4.052Y-3.876
X4.066Y-3.42
X4.08Y-1.53
X4.08Y-1.61
X4.08Y-1.7
X4.096Y-2.996
X4.1Y-2.53
X4.1Y-2.605
X4.1Y-2.71
X4.1Y-2.765
X4.1Y-2.855
X4.1Y-4.07
X4.1Y-4.16
X4.1Y-4.3
X4.1Y-4.39
X4.115Y-2.015
X4.16Y-1.53
X4.16Y-1.61
X4.16Y-1.7
X4.166Y-3.658
X4.166Y-3.688
X4.166Y-3.718
X4.168Y-2.286
X4.168Y-2.316
X4.168Y-2.346
X4.175Y-2.605
X4.175Y-2.71
X4.175Y-2.765
X4.175Y-2.855
X4.198Y-3.658
X4.198Y-3.688
X4.198Y-3.718
X4.2Y-2.286
X4.2Y-2.316
X4.2Y-2.346
X4.218Y-5.049
X4.228Y-2.286
X4.228Y-2.316
X4.228Y-2.346
X4.231Y-4.708
X4.25Y-1.53
X4.25Y-1.61
X4.25Y-1.7
X4.254Y-3.732
X4.254Y-3.762
X4.254Y-3.792
X4.26Y-2.286
X4.26Y-2.316
X4.26Y-2.346
X4.285Y-2.61
X4.285Y-2.71
X4.285Y-2.77
X4.285Y-2.86
X4.286Y-3.732
X4.286Y-3.762
X4.286Y-3.792
X4.32Y-1.53
X4.32Y-1.61
X4.32Y-1.7
X4.35Y-2.53
X4.35Y-2.61
X4.35Y-2.71
X4.35Y-2.77
X4.35Y-2.86
X4.35Y-4.07
X4.35Y-4.16
X4.35Y-4.31
X4.35Y-4.39
X4.36Y-3.008
X4.36Y-3.416
X4.36Y-3.63
X4.39Y-1.53
X4.39Y-1.61
X4.39Y-1.7
X4.41Y-2.61
X4.41Y-2.71
X4.41Y-2.77
X4.41Y-2.86
X4.43Y-4.07
X4.43Y-4.16
X4.43Y-4.31
X4.43Y-4.39
X4.47Y-1.53
X4.47Y-1.61
X4.47Y-1.7
X4.49Y-2.61
X4.49Y-2.71
X4.49Y-2.77
X4.49Y-2.86
X4.492Y-2.996
X4.5Y-4.07
X4.5Y-4.16
X4.5Y-4.31
X4.5Y-4.39
X4.513Y-4.711
X4.53Y-3.77
X4.53Y-3.99
X4.5302Y-3.4169
X4.55Y-1.53
X4.55Y-1.61
X4.55Y-1.7
X4.56Y-2.61
X4.56Y-2.71
X4.56Y-2.77
X4.56Y-2.86
X4.57Y-4.07
X4.57Y-4.16
X4.57Y-4.31
X4.57Y-4.39
X4.614Y-4.91
X4.62Y-1.53
X4.62Y-1.61
X4.62Y-1.7
X4.622Y-1.95
X4.622Y-3.054
X4.624Y-2.448
X4.63Y-2.61
X4.63Y-2.71
X4.63Y-2.77
X4.63Y-2.86
X4.65Y-4.07
X4.65Y-4.16
X4.65Y-4.244
X4.65Y-4.39
X4.69Y-1.53
X4.69Y-1.61
X4.69Y-1.7
X4.695Y-4.8
X4.71Y-2.61
X4.71Y-2.71
X4.71Y-2.77
X4.71Y-2.86
X4.715Y-4.78
X4.726Y-4.244
X4.729Y-4.71
X4.735Y-4.76
X4.735Y-4.8
X4.74Y-4.07
X4.74Y-4.16
X4.74Y-4.39
X4.755Y-4.74
X4.755Y-4.78
X4.77Y-1.53
X4.77Y-1.61
X4.77Y-1.7
X4.775Y-4.72
X4.775Y-4.76
X4.775Y-4.8
X4.79Y-4.74
X4.79Y-4.78
X4.8Y-2.61
X4.8Y-2.71
X4.8Y-2.77
X4.8Y-2.86
X4.8Y-4.244
X4.805Y-4.72
X4.805Y-4.76
X4.81Y-4.07
X4.81Y-4.16
X4.81Y-4.39
X4.82Y-4.74
X4.835Y-4.72
X4.86Y-1.53
X4.86Y-1.61
X4.86Y-1.74
X4.87Y-2.61
X4.87Y-2.71
X4.87Y-2.77
X4.87Y-2.86
X4.88Y-4.07
X4.88Y-4.16
X4.88Y-4.31
X4.892Y-4.392
X4.924Y-5.051
X4.93Y-1.53
X4.93Y-1.61
X4.93Y-1.74
X4.94Y-2.61
X4.94Y-2.71
X4.94Y-2.77
X4.94Y-2.86
X4.95Y-4.07
X4.95Y-4.16
X4.95Y-4.31
X4.95Y-4.39
X5.0Y-1.53
X5.0Y-1.61
X5.0Y-1.74
X5.0Y-3.37
X5.0Y-3.58
X5.0Y-3.77
X5.0Y-3.99
X5.012Y-2.916
X5.03Y-4.07
X5.03Y-4.16
X5.03Y-4.31
X5.03Y-4.39
X5.04Y-2.61
X5.04Y-2.71
X5.04Y-2.77
X5.074Y-2.916
X5.09Y-1.53
X5.09Y-1.62
X5.09Y-1.7
X5.1Y-4.07
X5.1Y-4.16
X5.1Y-4.31
X5.1Y-4.39
X5.102Y-3.054
X5.13Y-2.61
X5.13Y-2.71
X5.13Y-2.77
X5.14Y-2.916
X5.17Y-1.53
X5.17Y-1.62
X5.17Y-1.7
X5.17Y-4.07
X5.17Y-4.16
X5.17Y-4.31
X5.17Y-4.39
X5.196Y-4.927
X5.2Y-2.61
X5.2Y-2.71
X5.2Y-2.77
X5.2Y-2.86
X5.24Y-1.53
X5.24Y-1.62
X5.24Y-1.7
X5.25Y-4.07
X5.25Y-4.16
X5.25Y-4.31
X5.25Y-4.39
X5.27Y-2.61
X5.27Y-2.71
X5.27Y-2.77
X5.27Y-2.86
X5.32Y-3.5
X5.32Y-3.77
X5.32Y-3.99
X5.33Y-1.53
X5.33Y-1.62
X5.33Y-1.7
X5.34Y-4.07
X5.34Y-4.16
X5.34Y-4.31
X5.34Y-4.39
X5.355Y-2.8609
X5.355Y-2.61
X5.355Y-2.71
X5.355Y-2.77
X5.41Y-4.07
X5.41Y-4.16
X5.41Y-4.31
X5.41Y-4.39
X5.42Y-1.53
X5.42Y-1.62
X5.42Y-1.7
X5.435Y-2.61
X5.435Y-2.71
X5.435Y-2.77
X5.435Y-2.86
X5.44Y-2.448
X5.48Y-4.07
X5.48Y-4.16
X5.48Y-4.31
X5.48Y-4.39
X5.485Y-5.049
X5.5Y-1.53
X5.5Y-1.62
X5.5Y-1.7
X5.515Y-2.61
X5.515Y-2.71
X5.515Y-2.77
X5.515Y-2.86
X5.5453Y-3.0525
X5.546Y-3.372
X5.546Y-3.676
X5.55Y-4.07
X5.55Y-4.16
X5.55Y-4.31
X5.55Y-4.39
X5.57Y-1.53
X5.57Y-1.62
X5.57Y-1.7
X5.575Y-2.62
X5.575Y-2.77
X5.58Y-2.895
X5.625Y-4.07
X5.63Y-4.215
X5.63Y-4.31
X5.63Y-4.39
X5.64Y-1.53
X5.64Y-1.62
X5.64Y-1.7
X5.64Y-2.65
X5.64Y-2.78
X5.64Y-2.91
X5.68Y-4.31
X5.7Y-4.215
X5.705Y-4.39
X5.709Y-4.545
X5.72Y-4.27
X5.73Y-1.53
X5.73Y-1.62
X5.73Y-1.7
X5.765Y-4.355
X5.775Y-4.22
X5.807Y-2.821
X5.808Y-2.88
X5.81Y-1.53
X5.81Y-1.62
X5.81Y-1.7
X5.815Y-3.725
X5.815Y-3.775
X5.815Y-3.83
X5.815Y-3.89
X5.815Y-3.935
X5.82Y-2.672
X5.82Y-2.724
X5.82Y-4.3
X5.825Y-4.18
X5.83Y-3.67
X5.834Y-3.519
X5.834Y-3.583
X5.839Y-4.921
X5.865Y-4.14
X5.865Y-4.26
X5.872Y-2.821
X5.872Y-2.88
X5.88Y-1.49
X5.88Y-1.62
X5.88Y-1.7
X5.903Y-3.086
X5.903Y-3.111
X5.91Y-4.21
X5.913Y-4.417
X5.914Y-3.519
X5.914Y-3.585
X5.915Y-3.63
X5.929Y-3.085
X5.929Y-3.111
X5.93Y-1.56
X5.93Y-1.62
X5.93Y-1.7
X5.935Y-3.78
X5.95Y-1.46
X5.95Y-4.175
X5.954Y-3.086
X5.954Y-3.111
X5.965Y-3.94
X5.965Y-4.01
X5.965Y-4.07
X5.965Y-4.13
X5.988Y-3.019
X6.0387Y-2.9497
X6.053Y-3.272
X6.057Y-3.305
X6.082Y-3.289
X6.084Y-3.822
X6.084Y-3.87
X6.085Y-3.902
X6.101Y-2.9877
X6.11Y-3.289
X6.118Y-1.636
X6.118Y-1.684
X6.1228Y-3.0495
X6.123Y-2.669
X6.171Y-2.429
X6.191Y-2.662
X6.369Y-2.542
X6.463Y-3.76
X6.468Y-3.611
X6.468Y-3.638
X6.499Y-3.76
X6.501Y-3.38
X6.547Y-3.419
X6.547Y-3.608
X6.549Y-2.713
X6.558Y-3.045
X6.563Y-3.282
X6.569Y-3.459
X6.606Y-3.577
X6.614Y-2.454
X6.625Y-3.627
T3
X5.94Y-4.5769
X5.94Y-4.6163
X5.94Y-4.6557
X5.94Y-4.6951
X6.208Y-2.9387
X6.2117Y-4.2887
X6.2473Y-1.6337
X6.2473Y-2.9387
X6.2511Y-4.2887
X6.2867Y-1.6337
X6.2867Y-2.9387
X6.2905Y-4.2887
X6.3261Y-1.6337
T4
X6.2017Y-4.8137
X6.2017Y-4.8987
X6.2017Y-4.9837
X6.2017Y-5.0687
X6.206Y-3.551
X6.206Y-3.641
X6.2067Y-3.4587
X6.2067Y-3.7287
X6.2517Y-2.5487
X6.2517Y-2.8487
X6.2567Y-2.2387
X6.2567Y-2.3237
X6.2567Y-2.4087
X6.2573Y-2.1537
X6.2617Y-3.9037
X6.2617Y-4.2037
X6.2917Y-1.2487
X6.2917Y-1.5487
X6.406Y-3.551
X6.406Y-3.641
X6.4067Y-3.4587
X6.4067Y-3.7287
X6.5017Y-4.8137
X6.5017Y-4.8987
X6.5017Y-4.9837
X6.5017Y-5.0687
X6.5567Y-2.2387
X6.5567Y-2.3237
X6.5567Y-2.4087
X6.5573Y-2.1537
T5
X5.7452Y-2.6202
X5.7452Y-2.6702
X5.7452Y-2.7202
X5.7452Y-2.7702
X5.7452Y-2.8202
X5.7452Y-2.8702
X5.7452Y-2.9202
X5.7452Y-3.1702
X5.7452Y-3.2202
X5.7452Y-3.2702
X5.7452Y-3.3202
X5.7452Y-3.3702
X5.7452Y-3.4202
X5.7452Y-3.4702
X5.7452Y-3.5202
X5.7452Y-3.5702
X5.7452Y-3.6202
X5.7452Y-3.6702
X5.7452Y-3.7202
X5.7452Y-3.7702
X5.7452Y-3.8202
X5.7452Y-3.8702
X6.0201Y-3.6224
X6.0201Y-3.6724
X6.0201Y-3.7224
X6.0201Y-3.7724
X6.0201Y-3.8224
X6.0201Y-3.8724
X6.0201Y-3.9224
X6.0201Y-4.1724
X6.0201Y-4.2224
X6.0201Y-4.2724
X6.0201Y-4.3224
X6.0201Y-4.3724
X6.0201Y-4.4224
X6.0201Y-4.4724
X6.0201Y-4.5224
X6.0201Y-4.5724
X6.0201Y-4.6224
X6.0201Y-4.6724
X6.0201Y-4.7224
X6.0201Y-4.7724
X6.0201Y-4.8224
X6.0201Y-4.8724
X6.0401Y-1.4324
X6.0401Y-1.4824
X6.0401Y-1.5324
X6.0401Y-1.5824
X6.0401Y-1.6324
X6.0401Y-1.6824
X6.0401Y-1.7324
X6.0401Y-1.9824
X6.0401Y-2.0324
X6.0401Y-2.0824
X6.0401Y-2.1324
X6.0401Y-2.1824
X6.0401Y-2.2324
X6.0401Y-2.2824
X6.0401Y-2.3324
X6.0401Y-2.3824
X6.0401Y-2.4324
X6.0401Y-2.4824
X6.0401Y-2.5324
X6.0401Y-2.5824
X6.0401Y-2.6324
X6.0401Y-2.6824
X6.2517Y-4.4713
X6.2517Y-4.55
X6.2517Y-4.6287
X6.2586Y-3.12
X6.2586Y-3.1987
X6.2586Y-3.2775
X6.2923Y-1.8136
X6.2923Y-1.8923
X6.2923Y-1.9711
T6
X6.4067Y-2.6387
X6.4067Y-2.8937
X6.4067Y-3.9737
X6.4067Y-4.2287
X6.4067Y-4.4837
X6.4067Y-3.1487
X6.4417Y-1.3337
X6.4417Y-1.8437
X6.4423Y-1.5887
X6.5067Y-2.6387
X6.5067Y-2.8937
X6.5067Y-3.9737
X6.5067Y-4.2287
X6.5067Y-4.4837
X6.5067Y-3.1487
X6.5417Y-1.3337
X6.5417Y-1.8437
X6.5423Y-1.5887
T7
X3.0069Y-3.1891
X3.007Y-1.8347
X3.0074Y-4.5449
X3.0569Y-3.1141
X3.057Y-1.7597
X3.0574Y-4.4699
X3.1069Y-3.1891
X3.107Y-1.8347
X3.1074Y-4.5449
X3.1569Y-3.1141
X3.157Y-1.7597
X3.1574Y-4.4699
X3.2069Y-3.1891
X3.207Y-1.8347
X3.2074Y-4.5449
X3.2569Y-3.1141
X3.257Y-1.7597
X3.2574Y-4.4699
X3.3069Y-3.1891
X3.307Y-1.8347
X3.3074Y-4.5449
X3.5569Y-3.1141
X3.557Y-1.7597
X3.5574Y-4.4699
X3.6069Y-3.1891
X3.607Y-1.8347
X3.6074Y-4.5449
X3.6569Y-3.1141
X3.657Y-1.7597
X3.6574Y-4.4699
X3.7069Y-3.1891
X3.707Y-1.8347
X3.7074Y-4.5449
X3.7569Y-3.1141
X3.757Y-1.7597
X3.7574Y-4.4699
X3.8069Y-3.1891
X3.807Y-1.8347
X3.8074Y-4.5449
X3.8569Y-3.1141
X3.857Y-1.7597
X3.8574Y-4.4699
X3.9069Y-3.1891
X3.907Y-1.8347
X3.9074Y-4.5449
X3.9569Y-3.1141
X3.957Y-1.7597
X3.9574Y-4.4699
X4.0069Y-3.1891
X4.007Y-1.8347
X4.0074Y-4.5449
X4.0569Y-3.1141
X4.057Y-1.7597
X4.0574Y-4.4699
X4.1069Y-3.1891
X4.107Y-1.8347
X4.1074Y-4.5449
X4.1569Y-3.1141
X4.157Y-1.7597
X4.1574Y-4.4699
X4.2069Y-3.1891
X4.207Y-1.8347
X4.2074Y-4.5449
X4.2569Y-3.1141
X4.257Y-1.7597
X4.2574Y-4.4699
T8
X6.2517Y-4.3886
X6.2517Y-4.7114
X6.2586Y-3.0373
X6.2586Y-3.3602
X6.2923Y-1.7309
X6.2923Y-2.0537
T9
X2.8445Y-3.1492
X2.8446Y-1.7947
X2.845Y-4.505
X4.4193Y-3.1492
X4.4194Y-1.7947
X4.4198Y-4.505
X5.7451Y-2.4578
X5.7451Y-4.0326
X6.02Y-3.46
X6.02Y-5.0348
X6.04Y-1.27
X6.04Y-2.8448
T10
X2.9528Y-1.378
X2.9528Y-4.9213
X4.9213Y-1.378
X4.9213Y-3.1496
X4.9213Y-4.9213
X5.7087Y-1.378
X5.7087Y-4.9213
M30
